<svg width="85" height="85" viewBox="0 0 85 85" fill="none" xmlns="http://www.w3.org/2000/svg">
<rect opacity="0.2" x="3" y="12" width="78" height="49" fill="#CECECE"/>
<path d="M79.6029 9.44458H5.3969C2.41651 9.44458 0 11.8609 0 14.8413V70.1589C0 73.1392 2.41651 75.5555 5.3969 75.5555H79.6029C82.5835 75.5555 85 73.1392 85 70.1588V14.8413C85 11.8609 82.5836 9.44458 79.6029 9.44458ZM79.6029 14.8413V54.091L68.9672 44.4213C67.3685 42.9682 64.9102 43.0262 63.3829 44.5549L52.6187 55.3174L31.3947 29.9659C29.7904 28.05 26.8518 28.0312 25.2234 29.9241L5.3969 52.9659V14.8413H79.6029ZM56.6667 29.008C56.6667 24.9091 59.9882 21.5873 64.0871 21.5873C68.1861 21.5873 71.5077 24.9091 71.5077 29.008C71.5077 33.1069 68.1863 36.4285 64.0871 36.4285C59.9883 36.4287 56.6667 33.1069 56.6667 29.008Z" fill="#CECECE"/>
</svg>
